<!--?xml version="1.0" standalone="no"?-->
              <svg id="sw-js-blob-svg" viewBox="0 0 100 100" xmlns="http://www.w3.org/2000/svg" version="1.1">
                    <defs> 
                        <linearGradient id="sw-gradient" x1="0" x2="1" y1="1" y2="0">
                            <stop id="stop1" stop-color="rgba(248, 117, 55, 1)" offset="0%"></stop>
                            <stop id="stop2" stop-color="rgba(251, 168, 31, 1)" offset="100%"></stop>
                        </linearGradient>
                    </defs>
                <path fill="url(#sw-gradient)" d="M15.9,-28.8C20.3,-25,23.2,-20.1,28.3,-15.1C33.3,-10.1,40.5,-5,42,0.9C43.6,6.8,39.5,13.7,35,19.5C30.4,25.4,25.4,30.3,19.4,34.8C13.5,39.3,6.8,43.5,-0.4,44.1C-7.6,44.8,-15.1,42,-19.7,36.8C-24.3,31.5,-25.9,23.7,-27.5,17.2C-29,10.6,-30.5,5.3,-32.2,-1C-33.9,-7.3,-35.8,-14.5,-33.4,-19.6C-31,-24.7,-24.3,-27.6,-18,-30.2C-11.7,-32.8,-5.9,-35.2,0,-35.1C5.8,-35,11.5,-32.5,15.9,-28.8Z" width="100%" height="100%" transform="translate(50 50)" stroke-width="0" style="transition: all 0.3s ease 0s;" stroke="url(#sw-gradient)"></path>
              </svg>